<svg width="734" height="640" viewBox="0 0 734 640" fill="none" xmlns="http://www.w3.org/2000/svg" xmlns:xlink="http://www.w3.org/1999/xlink">
<rect width="734" height="640" fill="url(#pattern0)"/>
<defs>
<pattern id="pattern0" patternContentUnits="objectBoundingBox" width="1" height="1">
<use xlink:href="#image0_1_86" transform="translate(-0.00408719) scale(0.0013624 0.0015625)"/>
</pattern>
<image id="image0_1_86" width="740" height="640" xlink:href="img/home.png"/>
</defs>
<path d="M222 527.826L442.8 536.986L512 521.3V546.145L443.5 568.7L222 556.106V527.826Z" fill="#3595F6" fill-opacity="0.75"/>
<path d="M223 530.545V501L443.3 504.9L513 501V524.636L443.7 540L223 530.545Z" fill="#3595F6" fill-opacity="0.75"/>
<path d="M223 505V475H444H513V502.6L445 511L223 505Z" fill="#3595F6" fill-opacity="0.75"/>
<path d="M223 482V451.774L444.3 447.3L512 455.401V482H444" fill="#3595F6" fill-opacity="0.75"/>
<path d="M223 455.443V424.613L444.5 420.7L513 433.743V459L444 451.055L223 455.443Z" fill="#3595F6" fill-opacity="0.75"/>
<path d="M222 427.876V400.966L443 387L514 413.115V437.3L443 423.334L222 427.876Z" fill="#3595F6" fill-opacity="0.75"/>
<path d="M222 406.026V377.984L444.2 359.7L514 391.781V415L443.7 390.659L222 406.026Z" fill="#3595F6" fill-opacity="0.75"/>
<path d="M222 380.743V353.126L444.5 330.7L514 371.132V394L442 362.295L222 380.743Z" fill="#3595F6" fill-opacity="0.75"/>
<path d="M222 354.447V328.256L445 301.3L514 349.318V373L444.7 331.53L222 354.447Z" fill="#3595F6" fill-opacity="0.75"/>
<path d="M222 329.41V303.402L444.5 272.3L514 327.568V350L443.7 304.16L222 329.41Z" fill="#3595F6" fill-opacity="0.75"/>
<path d="M221 305.329V279.506L443.3 244L514 307.804V329L444 274.449L221 305.329Z" fill="#3595F6" fill-opacity="0.75"/>
<path d="M222 280.165V254.471L443.2 217L513 285.518V308L444.3 245.585L222 280.165Z" fill="#3595F6" fill-opacity="0.75"/>
<path d="M222 256.154V229.505L444.3 189L513 263.935V286L444 217.78L222 256.154Z" fill="#3595F6" fill-opacity="0.75"/>
<path d="M222 230.053V203.578L442.8 157.3L513 240.961V265L444 187.376L222 230.053Z" fill="#3595F6" fill-opacity="0.75"/>
<path d="M223 206.056V179.667L443 129L513 218.722V243L442.3 159.294L223 206.056Z" fill="#3595F6" fill-opacity="0.75"/>
<path d="M222 181.017V154.713L441.8 100L513 197.116V221L443.3 130.197L222 181.017Z" fill="#3595F6" fill-opacity="0.75"/>
<path d="M222 156.044V128.773L444 69.3L513 175.973V198L443.7 101.816L222 156.044Z" fill="#3595F6" fill-opacity="0.75"/>
</svg>
